<mxfile host="app.diagrams.net" modified="2023-10-08T08:04:21.936Z" agent="Mozilla/5.0 (Windows NT 10.0; Win64; x64; rv:109.0) Gecko/20100101 Firefox/118.0" etag="2EiAh4ThAKRdRAkJVFzm" version="22.0.4" type="github">
  <diagram name="Page-1" id="LKikElVEAUxiI60nU3dY">
    <mxGraphModel dx="782" dy="733" grid="1" gridSize="10" guides="1" tooltips="1" connect="1" arrows="1" fold="1" page="1" pageScale="1" pageWidth="850" pageHeight="1100" math="0" shadow="0">
      <root>
        <mxCell id="0" />
        <mxCell id="1" parent="0" />
        <mxCell id="-0O3ZHl-Z31aorz-6WcU-3" value="" style="rounded=0;whiteSpace=wrap;html=1;flipH=1;" vertex="1" parent="1">
          <mxGeometry x="190" y="120" width="450" height="350" as="geometry" />
        </mxCell>
        <mxCell id="-0O3ZHl-Z31aorz-6WcU-7" style="rounded=0;orthogonalLoop=1;jettySize=auto;html=1;entryX=0;entryY=0.5;entryDx=0;entryDy=0;" edge="1" parent="1" source="-0O3ZHl-Z31aorz-6WcU-1" target="-0O3ZHl-Z31aorz-6WcU-5">
          <mxGeometry relative="1" as="geometry" />
        </mxCell>
        <mxCell id="-0O3ZHl-Z31aorz-6WcU-1" value="&lt;div&gt;Student&lt;/div&gt;&lt;div&gt;&lt;br&gt;&lt;/div&gt;" style="shape=umlActor;verticalLabelPosition=bottom;verticalAlign=top;html=1;outlineConnect=0;" vertex="1" parent="1">
          <mxGeometry x="90" y="200" width="30" height="60" as="geometry" />
        </mxCell>
        <mxCell id="-0O3ZHl-Z31aorz-6WcU-4" value="&lt;font style=&quot;font-size: 14px;&quot; color=&quot;#ff0000&quot;&gt;&lt;b&gt;Content&lt;/b&gt;&lt;/font&gt;" style="text;html=1;align=center;verticalAlign=middle;resizable=0;points=[];autosize=1;strokeColor=none;fillColor=none;" vertex="1" parent="1">
          <mxGeometry x="180" y="430" width="80" height="30" as="geometry" />
        </mxCell>
        <mxCell id="-0O3ZHl-Z31aorz-6WcU-5" value="" style="ellipse;whiteSpace=wrap;html=1;" vertex="1" parent="1">
          <mxGeometry x="260" y="310" width="100" height="40" as="geometry" />
        </mxCell>
        <mxCell id="-0O3ZHl-Z31aorz-6WcU-6" value="Register For Courses" style="text;html=1;align=center;verticalAlign=middle;resizable=0;points=[];autosize=1;strokeColor=none;fillColor=none;" vertex="1" parent="1">
          <mxGeometry x="240" y="350" width="140" height="30" as="geometry" />
        </mxCell>
        <mxCell id="-0O3ZHl-Z31aorz-6WcU-10" style="rounded=0;orthogonalLoop=1;jettySize=auto;html=1;entryX=0;entryY=0.5;entryDx=0;entryDy=0;" edge="1" parent="1" source="-0O3ZHl-Z31aorz-6WcU-8" target="-0O3ZHl-Z31aorz-6WcU-5">
          <mxGeometry relative="1" as="geometry" />
        </mxCell>
        <mxCell id="-0O3ZHl-Z31aorz-6WcU-8" value="Billing System" style="shape=umlActor;verticalLabelPosition=bottom;verticalAlign=top;html=1;outlineConnect=0;" vertex="1" parent="1">
          <mxGeometry x="90" y="310" width="30" height="60" as="geometry" />
        </mxCell>
        <mxCell id="-0O3ZHl-Z31aorz-6WcU-16" style="rounded=0;orthogonalLoop=1;jettySize=auto;html=1;exitX=0.5;exitY=0.5;exitDx=0;exitDy=0;exitPerimeter=0;entryX=1;entryY=0.5;entryDx=0;entryDy=0;" edge="1" parent="1" source="-0O3ZHl-Z31aorz-6WcU-11" target="-0O3ZHl-Z31aorz-6WcU-14">
          <mxGeometry relative="1" as="geometry" />
        </mxCell>
        <mxCell id="-0O3ZHl-Z31aorz-6WcU-17" style="rounded=0;orthogonalLoop=1;jettySize=auto;html=1;exitX=0.5;exitY=0.5;exitDx=0;exitDy=0;exitPerimeter=0;entryX=1;entryY=0.5;entryDx=0;entryDy=0;" edge="1" parent="1" source="-0O3ZHl-Z31aorz-6WcU-11" target="-0O3ZHl-Z31aorz-6WcU-12">
          <mxGeometry relative="1" as="geometry" />
        </mxCell>
        <mxCell id="-0O3ZHl-Z31aorz-6WcU-11" value="Instructor" style="shape=umlActor;verticalLabelPosition=bottom;verticalAlign=top;html=1;outlineConnect=0;" vertex="1" parent="1">
          <mxGeometry x="730" y="300" width="30" height="60" as="geometry" />
        </mxCell>
        <mxCell id="-0O3ZHl-Z31aorz-6WcU-12" value="" style="ellipse;whiteSpace=wrap;html=1;" vertex="1" parent="1">
          <mxGeometry x="480" y="360" width="100" height="40" as="geometry" />
        </mxCell>
        <mxCell id="-0O3ZHl-Z31aorz-6WcU-13" value="Request Enrollment List" style="text;html=1;align=center;verticalAlign=middle;resizable=0;points=[];autosize=1;strokeColor=none;fillColor=none;" vertex="1" parent="1">
          <mxGeometry x="440" y="400" width="160" height="30" as="geometry" />
        </mxCell>
        <mxCell id="-0O3ZHl-Z31aorz-6WcU-14" value="" style="ellipse;whiteSpace=wrap;html=1;" vertex="1" parent="1">
          <mxGeometry x="490" y="260" width="100" height="40" as="geometry" />
        </mxCell>
        <mxCell id="-0O3ZHl-Z31aorz-6WcU-15" value="Select Courses to Teach" style="text;html=1;align=center;verticalAlign=middle;resizable=0;points=[];autosize=1;strokeColor=none;fillColor=none;" vertex="1" parent="1">
          <mxGeometry x="470" y="300" width="160" height="30" as="geometry" />
        </mxCell>
        <mxCell id="-0O3ZHl-Z31aorz-6WcU-21" style="edgeStyle=orthogonalEdgeStyle;rounded=0;orthogonalLoop=1;jettySize=auto;html=1;" edge="1" parent="1" source="-0O3ZHl-Z31aorz-6WcU-18" target="-0O3ZHl-Z31aorz-6WcU-19">
          <mxGeometry relative="1" as="geometry" />
        </mxCell>
        <mxCell id="-0O3ZHl-Z31aorz-6WcU-18" value="Register" style="text;html=1;align=center;verticalAlign=middle;resizable=0;points=[];autosize=1;strokeColor=none;fillColor=none;" vertex="1" parent="1">
          <mxGeometry x="370" y="70" width="70" height="30" as="geometry" />
        </mxCell>
        <mxCell id="-0O3ZHl-Z31aorz-6WcU-19" value="" style="ellipse;whiteSpace=wrap;html=1;" vertex="1" parent="1">
          <mxGeometry x="355" y="150" width="100" height="40" as="geometry" />
        </mxCell>
        <mxCell id="-0O3ZHl-Z31aorz-6WcU-20" value="Register For Courses" style="text;html=1;align=center;verticalAlign=middle;resizable=0;points=[];autosize=1;strokeColor=none;fillColor=none;" vertex="1" parent="1">
          <mxGeometry x="335" y="190" width="140" height="30" as="geometry" />
        </mxCell>
      </root>
    </mxGraphModel>
  </diagram>
</mxfile>
